# xmcd
#
# Track frame offsets:
#	150
#	14644
#	30530
#	47147
#	61609
#	77404
#	94974
#	114042
#	128729
#	145906
#	156879
#	170739
#	183145
#	198615
#	212203
#
# Disc length: 3023 seconds
#
# Revision: 0
# Processed by: cddbd v1.5.2PL0 Copyright (c) Steve Scherf et al.
# Submitted via: dBpowerAMP V4.0
#
DISCID=c70bcd0f
DTITLE=The Bosshoss - Stallion Battalion
DYEAR=2007
DGENRE=Country
TTITLE0=Stallion Battalion
TTITLE1=Monkey Business
TTITLE2=Shake and Shout
TTITLE3=José and Myling
TTITLE4=Free love on free love free way
TTITLE5=Polk salad Annie
TTITLE6=Omniscient Lover
TTITLE7=Everything counts
TTITLE8=Goodbye Mary
TTITLE9=Gay bar
TTITLE10=Truck'n'Roll rules
TTITLE11=High
TTITLE12=Drop it like it's hot
TTITLE13=Jumpin' around
TTITLE14=Good cooking
EXTD=
EXTT0=
EXTT1=
EXTT2=
EXTT3=
EXTT4=
EXTT5=
EXTT6=
EXTT7=
EXTT8=
EXTT9=
EXTT10=
EXTT11=
EXTT12=
EXTT13=
EXTT14=
PLAYORDER=
